<svg xmlns="http://www.w3.org/2000/svg" viewBox="0 0 800 600">
  <!-- Background gradient -->
  <defs>
    <linearGradient id="bgGradient" x1="0%" y1="0%" x2="100%" y2="100%">
      <stop offset="0%" stop-color="#0D1117" />
      <stop offset="100%" stop-color="#161B22" />
    </linearGradient>
    
    <!-- World glow -->
    <filter id="worldGlow" x="-50%" y="-50%" width="200%" height="200%">
      <feGaussianBlur stdDeviation="6" result="blur" />
      <feComposite in="SourceGraphic" in2="blur" operator="over" />
    </filter>
    
    <!-- Room glow -->
    <filter id="roomGlow" x="-30%" y="-30%" width="160%" height="160%">
      <feGaussianBlur stdDeviation="2" result="blur" />
      <feComposite in="SourceGraphic" in2="blur" operator="over" />
    </filter>
    
    <!-- Entity glow -->
    <filter id="entityGlow" x="-30%" y="-30%" width="160%" height="160%">
      <feGaussianBlur stdDeviation="1" result="blur" />
      <feComposite in="SourceGraphic" in2="blur" operator="over" />
    </filter>
    
    <!-- Connection paths -->
    <marker id="arrowhead" markerWidth="10" markerHeight="7" 
            refX="0" refY="3.5" orient="auto">
      <polygon points="0 0, 10 3.5, 0 7" fill="#4D5BCE" />
    </marker>
    
    <!-- Text background -->
    <filter id="textBackground" x="-10%" y="-10%" width="120%" height="120%">
      <feFlood flood-color="#0D1117" flood-opacity="0.7" result="bg" />
      <feComposite in="bg" in2="SourceGraphic" operator="in" />
      <feComposite in="SourceGraphic" operator="over" />
    </filter>
  </defs>
  
  <!-- Background -->
  <rect width="800" height="600" fill="url(#bgGradient)" />
  
  <!-- Decorative grid lines -->
  <g stroke="#343B4A" stroke-width="0.5" opacity="0.2">
    <path d="M0,100 H800 M0,200 H800 M0,300 H800 M0,400 H800 M0,500 H800" />
    <path d="M100,0 V600 M200,0 V600 M300,0 V600 M400,0 V600 M500,0 V600 M600,0 V600 M700,0 V600" />
  </g>
  
  <!-- Title -->
  <text x="400" y="80" font-family="Arial, sans-serif" font-size="42" font-weight="bold" 
        fill="#E5E9F0" text-anchor="middle">Worlds</text>
  <text x="400" y="120" font-family="Arial, sans-serif" font-size="18" 
        fill="#88C0D0" text-anchor="middle">In ElizaOS Framework</text>
  
  <!-- Central World - DEV -->
  <g transform="translate(400, 330)">
    <!-- World container -->
    <circle cx="0" cy="0" r="130" fill="#1A1D2D" stroke="#4D5BCE" stroke-width="3" filter="url(#worldGlow)" />
    <text x="0" y="0" font-family="Arial, sans-serif" font-size="24" fill="#4D5BCE" text-anchor="middle" font-weight="bold">DEV</text>
    
    <!-- Inner structure - Rooms -->
    <g opacity="0.85">
      <circle cx="-60" cy="-40" r="25" fill="#292E42" stroke="#88C0D0" stroke-width="1.5" filter="url(#roomGlow)" />
      <text x="-60" y="-36" font-family="Arial, sans-serif" font-size="10" fill="#E5E9F0" text-anchor="middle">#general</text>
      
      <circle cx="50" cy="-50" r="22" fill="#292E42" stroke="#88C0D0" stroke-width="1.5" filter="url(#roomGlow)" />
      <text x="50" y="-46" font-family="Arial, sans-serif" font-size="10" fill="#E5E9F0" text-anchor="middle">#bugs</text>
      
      <circle cx="10" cy="60" r="30" fill="#292E42" stroke="#88C0D0" stroke-width="1.5" filter="url(#roomGlow)" />
      <text x="10" y="64" font-family="Arial, sans-serif" font-size="10" fill="#E5E9F0" text-anchor="middle">#roadmap</text>
      
      <circle cx="-70" cy="60" r="20" fill="#292E42" stroke="#88C0D0" stroke-width="1.5" filter="url(#roomGlow)" />
      <text x="-70" y="64" font-family="Arial, sans-serif" font-size="8" fill="#E5E9F0" text-anchor="middle">#support</text>
    </g>
  </g>
  
  <!-- QA World -->
  <g transform="translate(220, 230)">
    <!-- World container -->
    <circle cx="0" cy="0" r="70" fill="#1A1D2D" stroke="#B48EAD" stroke-width="2" filter="url(#worldGlow)" />
    <text x="0" y="5" font-family="Arial, sans-serif" font-size="18" fill="#B48EAD" text-anchor="middle" font-weight="bold">QA</text>
    
    <!-- Inner structure - Rooms -->
    <g opacity="0.85">
      <circle cx="-20" cy="-15" r="15" fill="#292E42" stroke="#88C0D0" stroke-width="1" filter="url(#roomGlow)" />
      <circle cx="15" cy="20" r="18" fill="#292E42" stroke="#88C0D0" stroke-width="1" filter="url(#roomGlow)" />
    </g>
  </g>
  
  <!-- PROD World -->
  <g transform="translate(600, 230)">
    <!-- World container -->
    <circle cx="0" cy="0" r="80" fill="#1A1D2D" stroke="#A3BE8C" stroke-width="2" filter="url(#worldGlow)" />
    <text x="0" y="5" font-family="Arial, sans-serif" font-size="18" fill="#A3BE8C" text-anchor="middle" font-weight="bold">PROD</text>
    
    <!-- Inner structure - Rooms -->
    <g opacity="0.85">
      <circle cx="-25" cy="-15" r="20" fill="#292E42" stroke="#88C0D0" stroke-width="1" filter="url(#roomGlow)" />
      <text x="-25" y="-11" font-family="Arial, sans-serif" font-size="8" fill="#E5E9F0" text-anchor="middle">#main</text>
      
      <circle cx="20" cy="25" r="17" fill="#292E42" stroke="#88C0D0" stroke-width="1" filter="url(#roomGlow)" />
      <text x="20" y="29" font-family="Arial, sans-serif" font-size="8" fill="#E5E9F0" text-anchor="middle">#help</text>
      
      <circle cx="25" cy="-20" r="15" fill="#292E42" stroke="#88C0D0" stroke-width="1" filter="url(#roomGlow)" />
    </g>
  </g>
  
  <!-- AI World -->
  <g transform="translate(500, 450)">
    <!-- World container -->
    <circle cx="0" cy="0" r="60" fill="#1A1D2D" stroke="#5E81AC" stroke-width="2" filter="url(#worldGlow)" />
    <text x="0" y="5" font-family="Arial, sans-serif" font-size="18" fill="#5E81AC" text-anchor="middle" font-weight="bold">AI</text>
    
    <!-- Inner structure - Rooms -->
    <g opacity="0.85">
      <circle cx="0" cy="-15" r="17" fill="#292E42" stroke="#88C0D0" stroke-width="1" filter="url(#roomGlow)" />
      <circle cx="0" cy="15" r="12" fill="#292E42" stroke="#88C0D0" stroke-width="1" filter="url(#roomGlow)" />
    </g>
  </g>
  
  <!-- Connection lines between worlds -->
  <g stroke-width="1.5" stroke-dasharray="5,3" opacity="0.7">
    <path d="M280,250 L340,290" stroke="#4D5BCE" marker-end="url(#arrowhead)" />
    <path d="M540,250 L460,290" stroke="#A3BE8C" marker-end="url(#arrowhead)" />
    <path d="M450,400 L480,410" stroke="#5E81AC" marker-end="url(#arrowhead)" />
  </g>
  
  <!-- Entities scattered across worlds -->
  <!-- DEV world entities -->
  <g transform="translate(400, 330)">
    <circle cx="-60" cy="-50" r="6" fill="#A3BE8C" stroke="#EBCB8B" stroke-width="1" filter="url(#entityGlow)" />
    <circle cx="-50" cy="-30" r="6" fill="#B48EAD" stroke="#EBCB8B" stroke-width="1" filter="url(#entityGlow)" />
    <circle cx="40" cy="-60" r="6" fill="#A3BE8C" stroke="#EBCB8B" stroke-width="1" filter="url(#entityGlow)" />
    <circle cx="60" cy="-40" r="6" fill="#B48EAD" stroke="#EBCB8B" stroke-width="1" filter="url(#entityGlow)" />
    <circle cx="0" cy="60" r="6" fill="#A3BE8C" stroke="#EBCB8B" stroke-width="1" filter="url(#entityGlow)" />
    <circle cx="20" cy="60" r="6" fill="#B48EAD" stroke="#EBCB8B" stroke-width="1" filter="url(#entityGlow)" />
    <circle cx="-80" cy="60" r="6" fill="#A3BE8C" stroke="#EBCB8B" stroke-width="1" filter="url(#entityGlow)" />
    <circle cx="-60" cy="70" r="6" fill="#B48EAD" stroke="#EBCB8B" stroke-width="1" filter="url(#entityGlow)" />
  </g>
  
  <!-- QA world entities -->
  <g transform="translate(220, 230)">
    <circle cx="-25" cy="-20" r="5" fill="#A3BE8C" stroke="#EBCB8B" stroke-width="1" filter="url(#entityGlow)" />
    <circle cx="-15" cy="-10" r="5" fill="#B48EAD" stroke="#EBCB8B" stroke-width="1" filter="url(#entityGlow)" />
    <circle cx="10" cy="15" r="5" fill="#A3BE8C" stroke="#EBCB8B" stroke-width="1" filter="url(#entityGlow)" />
    <circle cx="20" cy="25" r="5" fill="#B48EAD" stroke="#EBCB8B" stroke-width="1" filter="url(#entityGlow)" />
  </g>
  
  <!-- PROD world entities -->
  <g transform="translate(600, 230)">
    <circle cx="-30" cy="-20" r="5" fill="#A3BE8C" stroke="#EBCB8B" stroke-width="1" filter="url(#entityGlow)" />
    <circle cx="-20" cy="-10" r="5" fill="#B48EAD" stroke="#EBCB8B" stroke-width="1" filter="url(#entityGlow)" />
    <circle cx="15" cy="20" r="5" fill="#A3BE8C" stroke="#EBCB8B" stroke-width="1" filter="url(#entityGlow)" />
    <circle cx="25" cy="30" r="5" fill="#B48EAD" stroke="#EBCB8B" stroke-width="1" filter="url(#entityGlow)" />
    <circle cx="20" cy="-25" r="5" fill="#A3BE8C" stroke="#EBCB8B" stroke-width="1" filter="url(#entityGlow)" />
    <circle cx="30" cy="-15" r="5" fill="#B48EAD" stroke="#EBCB8B" stroke-width="1" filter="url(#entityGlow)" />
  </g>
  
  <!-- AI world entities -->
  <g transform="translate(500, 450)">
    <circle cx="-10" cy="-15" r="5" fill="#A3BE8C" stroke="#EBCB8B" stroke-width="1" filter="url(#entityGlow)" />
    <circle cx="10" cy="-15" r="5" fill="#B48EAD" stroke="#EBCB8B" stroke-width="1" filter="url(#entityGlow)" />
    <circle cx="0" cy="15" r="5" fill="#B48EAD" stroke="#EBCB8B" stroke-width="1" filter="url(#entityGlow)" />
  </g>
  
  <!-- Explanation bubbles -->
  <g filter="url(#textBackground)">
    <!-- World explanation -->
    <rect x="100" y="460" width="220" height="80" rx="10" ry="10" fill="#272C36" opacity="0.85" />
    <text x="210" y="485" font-family="Arial, sans-serif" font-size="14" fill="#E5E9F0" text-anchor="middle" font-weight="bold">Worlds</text>
    <text x="210" y="510" font-family="Arial, sans-serif" font-size="12" fill="#88C0D0" text-anchor="middle">Like Discord servers or Slack workspaces</text>
    <text x="210" y="530" font-family="Arial, sans-serif" font-size="12" fill="#88C0D0" text-anchor="middle">Each with their own purpose</text>
    
    <!-- Connection explanation -->
    <rect x="530" y="460" width="220" height="80" rx="10" ry="10" fill="#272C36" opacity="0.85" />
    <text x="640" y="485" font-family="Arial, sans-serif" font-size="14" fill="#E5E9F0" text-anchor="middle" font-weight="bold">Connected Environments</text>
    <text x="640" y="510" font-family="Arial, sans-serif" font-size="12" fill="#88C0D0" text-anchor="middle">Worlds can share information</text>
    <text x="640" y="530" font-family="Arial, sans-serif" font-size="12" fill="#88C0D0" text-anchor="middle">and entities can move between them</text>
  </g>
  
  <!-- Legend -->
  <g transform="translate(100, 360)" opacity="0.9">
    <rect x="0" y="0" width="130" height="80" rx="5" ry="5" fill="#272C36" />
    <text x="10" y="20" font-family="Arial, sans-serif" font-size="12" fill="#E5E9F0" font-weight="bold">Legend:</text>
    
    <circle cx="20" cy="40" r="8" fill="#1A1D2D" stroke="#4D5BCE" stroke-width="1.5" />
    <text x="40" y="44" font-family="Arial, sans-serif" font-size="11" fill="#E5E9F0">World</text>
    
    <circle cx="20" cy="60" r="6" fill="#292E42" stroke="#88C0D0" stroke-width="1" />
    <text x="40" y="64" font-family="Arial, sans-serif" font-size="11" fill="#E5E9F0">Room</text>
    
    <circle cx="70" cy="40" r="4" fill="#A3BE8C" stroke="#EBCB8B" stroke-width="0.5" />
    <text x="90" y="44" font-family="Arial, sans-serif" font-size="11" fill="#E5E9F0">User</text>
    
    <circle cx="70" cy="60" r="4" fill="#B48EAD" stroke="#EBCB8B" stroke-width="0.5" />
    <text x="90" y="64" font-family="Arial, sans-serif" font-size="11" fill="#E5E9F0">Agent</text>
  </g>
  
  <!-- Bottom descriptor -->
  <text x="400" y="570" font-family="Arial, sans-serif" font-size="16" fill="#88C0D0" text-anchor="middle">
    Virtual environments hosting rooms and entities for specific purposes
  </text>
  
  <!-- Decorative elements -->
  <g opacity="0.4">
    <circle cx="100" cy="100" r="2" fill="#88C0D0" />
    <circle cx="150" cy="80" r="1" fill="#88C0D0" />
    <circle cx="600" cy="120" r="2" fill="#88C0D0" />
    <circle cx="650" cy="90" r="1" fill="#88C0D0" />
    <circle cx="200" cy="500" r="1" fill="#88C0D0" />
    <circle cx="700" cy="450" r="2" fill="#88C0D0" />
    <circle cx="750" cy="520" r="1" fill="#88C0D0" />
  </g>
</svg>