<svg xmlns="http://www.w3.org/2000/svg" viewBox="0 0 800 600">
  <!-- Background gradient -->
  <defs>
    <linearGradient id="bgGradient" x1="0%" y1="0%" x2="100%" y2="100%">
      <stop offset="0%" stop-color="#0D1117" />
      <stop offset="100%" stop-color="#161B22" />
    </linearGradient>
    
    <!-- Glows and filters -->
    <filter id="entityGlow" x="-30%" y="-30%" width="160%" height="160%">
      <feGaussianBlur stdDeviation="4" result="blur" />
      <feComposite in="SourceGraphic" in2="blur" operator="over" />
    </filter>
    
    <filter id="componentGlow" x="-20%" y="-20%" width="140%" height="140%">
      <feGaussianBlur stdDeviation="2" result="blur" />
      <feComposite in="SourceGraphic" in2="blur" operator="over" />
    </filter>
    
    <filter id="softShadow" x="-10%" y="-10%" width="120%" height="130%">
      <feGaussianBlur in="SourceAlpha" stdDeviation="3" />
      <feOffset dx="2" dy="2" result="offsetblur" />
      <feComponentTransfer>
        <feFuncA type="linear" slope="0.3" />
      </feComponentTransfer>
      <feMerge>
        <feMergeNode />
        <feMergeNode in="SourceGraphic" />
      </feMerge>
    </filter>
    
    <!-- Patterns -->
    <pattern id="gridPattern" width="20" height="20" patternUnits="userSpaceOnUse">
      <rect width="20" height="20" fill="none" stroke="#2D3748" stroke-width="0.5" opacity="0.3" />
    </pattern>
    
    <!-- Connection lines -->
    <marker id="circleMarker" markerWidth="6" markerHeight="6" refX="3" refY="3">
      <circle cx="3" cy="3" r="2" fill="#88C0D0" />
    </marker>
  </defs>
  
  <!-- Background -->
  <rect width="800" height="600" fill="url(#bgGradient)" />
  <rect width="800" height="600" fill="url(#gridPattern)" opacity="0.2" />
  
  <!-- Title -->
  <text x="400" y="60" font-family="Arial, sans-serif" font-size="32" font-weight="bold" 
        fill="#E5E9F0" text-anchor="middle">Entities</text>
  
  <!-- Main Entity Types -->
  <!-- User Entity -->
  <g transform="translate(220, 180)" filter="url(#entityGlow)">
    <circle cx="0" cy="0" r="50" fill="#1E293B" stroke="#A3BE8C" stroke-width="2.5" />
    <circle cx="0" cy="-15" r="12" fill="#A3BE8C" />
    <path d="M-20,10 A20,20 0 0,0 20,10" stroke="#A3BE8C" stroke-width="2" fill="none" />
    <text x="0" y="35" font-family="Arial, sans-serif" font-size="12" fill="#E5E9F0" text-anchor="middle">User</text>
  </g>
  
  <!-- Agent Entity -->
  <g transform="translate(580, 180)" filter="url(#entityGlow)">
    <circle cx="0" cy="0" r="50" fill="#1E293B" stroke="#B48EAD" stroke-width="2.5" />
    <rect x="-20" y="-20" width="40" height="40" rx="4" ry="4" fill="none" stroke="#B48EAD" stroke-width="2" />
    <path d="M-10,-10 L10,10 M-10,10 L10,-10" stroke="#B48EAD" stroke-width="2" />
    <text x="0" y="35" font-family="Arial, sans-serif" font-size="12" fill="#E5E9F0" text-anchor="middle">Agent</text>
  </g>
  
  <!-- Component System -->
  <g transform="translate(400, 350)">
    <!-- Main component container -->
    <rect x="-180" y="-40" width="360" height="160" rx="10" ry="10" fill="#1E293B" stroke="#4D5BCE" stroke-width="2" />
    
    <!-- Component Title -->
    <text x="0" y="-15" font-family="Arial, sans-serif" font-size="16" fill="#88C0D0" text-anchor="middle">Components</text>
    
    <!-- Profile Component -->
    <g transform="translate(-120, 40)" filter="url(#componentGlow)">
      <rect x="-35" y="-25" width="70" height="50" rx="6" ry="6" fill="#2D3748" stroke="#5E81AC" stroke-width="1.5" />
      <circle cx="-20" cy="-10" r="6" fill="#5E81AC" />
      <line x1="-5" y1="-10" x2="20" y2="-10" stroke="#5E81AC" stroke-width="1.5" />
      <line x1="-5" y1="0" x2="20" y2="0" stroke="#5E81AC" stroke-width="1.5" />
      <line x1="-5" y1="10" x2="20" y2="10" stroke="#5E81AC" stroke-width="1.5" />
    </g>
    
    <!-- Permissions Component -->
    <g transform="translate(0, 40)" filter="url(#componentGlow)">
      <rect x="-35" y="-25" width="70" height="50" rx="6" ry="6" fill="#2D3748" stroke="#EBCB8B" stroke-width="1.5" />
      <rect x="-20" y="-10" width="15" height="10" fill="#EBCB8B" opacity="0.8" />
      <rect x="-20" y="5" width="40" height="10" fill="#EBCB8B" opacity="0.5" />
      <rect x="5" y="-10" width="15" height="10" fill="#EBCB8B" opacity="0.3" />
    </g>
    
    <!-- Data Component -->
    <g transform="translate(120, 40)" filter="url(#componentGlow)">
      <rect x="-35" y="-25" width="70" height="50" rx="6" ry="6" fill="#2D3748" stroke="#BF616A" stroke-width="1.5" />
      <circle cx="-15" cy="0" r="10" fill="none" stroke="#BF616A" stroke-width="1.5" />
      <circle cx="15" cy="0" r="10" fill="none" stroke="#BF616A" stroke-width="1.5" />
      <path d="M-5,0 L5,0" stroke="#BF616A" stroke-width="1.5" />
      <path d="M15,-10 L15,10" stroke="#BF616A" stroke-width="1.5" />
    </g>
  </g>
  
  <!-- Entity-Component Relationships -->
  <!-- User to Components -->
  <g stroke="#88C0D0" stroke-width="1.5" stroke-dasharray="3 2" opacity="0.7">
    <path d="M220,230 L280,350" marker-end="url(#circleMarker)" />
    <path d="M220,230 L400,350" marker-end="url(#circleMarker)" />
    <path d="M220,230 L520,350" marker-end="url(#circleMarker)" />
  </g>
  
  <!-- Agent to Components -->
  <g stroke="#B48EAD" stroke-width="1.5" stroke-dasharray="3 2" opacity="0.7">
    <path d="M580,230 L520,350" marker-end="url(#circleMarker)" />
    <path d="M580,230 L400,350" marker-end="url(#circleMarker)" />
    <path d="M580,230 L280,350" marker-end="url(#circleMarker)" />
  </g>
  
  <!-- Composite Entity -->
  <g transform="translate(400, 180)" filter="url(#entityGlow)">
    <circle cx="0" cy="0" r="60" fill="#1E293B" stroke="#4D5BCE" stroke-width="3" />
    
    <!-- Combined symbol -->
    <circle cx="-15" cy="-10" r="8" fill="#A3BE8C" opacity="0.9" />
    <rect x="5" y="-18" width="16" height="16" rx="2" ry="2" fill="none" stroke="#B48EAD" stroke-width="1.5" opacity="0.9" />
    <path d="M9,-10 L17,-10 M13,-14 L13,-6" stroke="#B48EAD" stroke-width="1.5" opacity="0.9" />
    
    <path d="M-20,10 A25,20 0 0,0 20,10" stroke="#88C0D0" stroke-width="2" fill="none" />
    <text x="0" y="35" font-family="Arial, sans-serif" font-size="12" fill="#E5E9F0" text-anchor="middle">Entity</text>
  </g>
  
  <!-- Relationship connections between entities -->
  <g stroke="#4D5BCE" stroke-width="2" opacity="0.6">
    <path d="M280,180 L340,180" marker-end="url(#circleMarker)" />
    <path d="M460,180 L520,180" marker-end="url(#circleMarker)" />
  </g>
  
  <!-- Component instances attached to Composite Entity -->
  <g transform="translate(400, 180)">
    <g transform="translate(30, -35)" filter="url(#componentGlow)">
      <circle cx="0" cy="0" r="10" fill="#2D3748" stroke="#5E81AC" stroke-width="1.5" />
    </g>
    
    <g transform="translate(-25, -35)" filter="url(#componentGlow)">
      <circle cx="0" cy="0" r="10" fill="#2D3748" stroke="#EBCB8B" stroke-width="1.5" />
    </g>
    
    <g transform="translate(0, -45)" filter="url(#componentGlow)">
      <circle cx="0" cy="0" r="10" fill="#2D3748" stroke="#BF616A" stroke-width="1.5" />
    </g>
  </g>
  
  <!-- Dataflow connections from Entity to Entity -->
  <g opacity="0.6">
    <path d="M400,240 Q400,290 350,310" stroke="#4D5BCE" stroke-width="1" stroke-dasharray="1 2" />
    <path d="M400,240 Q400,290 400,310" stroke="#4D5BCE" stroke-width="1" stroke-dasharray="1 2" />
    <path d="M400,240 Q400,290 450,310" stroke="#4D5BCE" stroke-width="1" stroke-dasharray="1 2" />
  </g>
  
  <!-- Entity Composition illustration -->
  <g transform="translate(400, 500)">
    <rect x="-150" y="-30" width="300" height="60" rx="8" ry="8" fill="#1E293B" stroke="#4D5BCE" stroke-width="1.5" />
    
    <g transform="translate(-100, 0)">
      <rect x="-20" y="-15" width="40" height="30" rx="4" ry="4" fill="#2D3748" stroke="#5E81AC" stroke-width="1" />
      <circle cx="0" cy="0" r="5" fill="#5E81AC" />
    </g>
    
    <g transform="translate(0, 0)">
      <rect x="-20" y="-15" width="40" height="30" rx="4" ry="4" fill="#2D3748" stroke="#EBCB8B" stroke-width="1" />
      <circle cx="0" cy="0" r="5" fill="#EBCB8B" />
    </g>
    
    <g transform="translate(100, 0)">
      <rect x="-20" y="-15" width="40" height="30" rx="4" ry="4" fill="#2D3748" stroke="#BF616A" stroke-width="1" />
      <circle cx="0" cy="0" r="5" fill="#BF616A" />
    </g>
    
    <line x1="-60" y1="0" x2="-40" y2="0" stroke="#4D5BCE" stroke-width="1" />
    <line x1="40" y1="0" x2="60" y2="0" stroke="#4D5BCE" stroke-width="1" />
  </g>
  
  <!-- Decorative elements -->
  <g opacity="0.3">
    <circle cx="100" cy="80" r="2" fill="#88C0D0" />
    <circle cx="150" cy="60" r="1" fill="#88C0D0" />
    <circle cx="700" cy="100" r="2" fill="#88C0D0" />
    <circle cx="650" cy="70" r="1" fill="#88C0D0" />
    <circle cx="200" cy="500" r="1" fill="#88C0D0" />
    <circle cx="700" cy="450" r="2" fill="#88C0D0" />
    <circle cx="750" cy="520" r="1" fill="#88C0D0" />
  </g>
</svg>